<svg width="48" height="48" viewBox="0 0 48 48" fill="none" xmlns="http://www.w3.org/2000/svg">
<g clip-path="url(#clip0_599_5492)">
<path fill-rule="evenodd" clip-rule="evenodd" d="M22.8843 12.1436C23.2417 12.112 23.6036 12.0949 23.9682 12.0949C24.3347 12.0949 24.6993 12.112 25.0576 12.1445L25.785 4.16891C25.19 4.11564 24.5887 4.08765 23.98 4.08765C23.3687 4.08765 22.7637 4.11654 22.166 4.16981C22.1637 4.16981 22.1614 4.17004 22.1592 4.17026C22.1569 4.17049 22.1546 4.17072 22.1524 4.17072L22.8843 12.1436ZM18.8707 13.2272C19.522 12.922 20.2059 12.6728 20.9143 12.4867L18.8599 4.75311C17.6798 5.0556 16.5388 5.47185 15.4512 5.98201L15.4484 5.98321L15.4449 5.98472L18.8707 13.2272ZM23.3134 16.8416L22.8834 12.1445H22.8816C22.2077 12.205 21.5501 12.3206 20.9134 12.4877L22.1233 17.052C22.5034 16.9518 22.9116 16.8768 23.3134 16.8416ZM18.8698 13.2272L20.8898 17.4953C20.5288 17.6651 20.1696 17.8718 19.844 18.0976L17.1383 14.224C17.6843 13.8457 18.263 13.5116 18.8698 13.2272ZM15.4739 15.6145L18.839 18.9373C18.5596 19.2172 18.2921 19.5342 18.0626 19.8574L14.1868 17.1387L14.1878 17.1378C14.5742 16.5951 15.0041 16.0849 15.4739 15.6145ZM15.4748 15.6136L15.4739 15.6145L15.4739 15.6145L9.76688 9.97839V9.97749C10.6204 9.12151 11.5519 8.34318 12.5497 7.65153L17.1392 14.2231C16.5424 14.6366 15.9855 15.1016 15.4748 15.6136ZM13.0984 19.0123L17.405 20.9888C17.239 21.3445 17.0966 21.7328 16.9914 22.1184L12.4136 20.8831C12.4145 20.8813 12.4172 20.8714 12.4172 20.8705C12.5941 20.224 12.82 19.6109 13.0984 19.0132V19.0123ZM29.8757 19.8601L33.7488 17.1378C33.3643 16.5962 32.9309 16.0844 32.463 15.6141L33.9175 14.1843L33.9238 14.1779L33.9383 14.1635L38.1823 9.96666C37.3342 9.1179 36.41 8.34499 35.4204 7.65876C35.4186 7.65695 35.4159 7.65605 35.4141 7.65424C35.4117 7.65255 35.4093 7.65098 35.4069 7.64944C35.4031 7.64689 35.3993 7.64442 35.3959 7.6416L30.8989 14.0877L30.8299 14.187L30.8127 14.2123L30.8027 14.2267C30.8036 14.2276 30.8054 14.2285 30.8063 14.2294C31.3995 14.6411 31.9537 15.1044 32.4626 15.6136L29.1002 18.9391C29.3787 19.2199 29.6463 19.536 29.8757 19.8601ZM35.522 20.8813L30.9451 22.1211C30.8408 21.7355 30.6984 21.3481 30.5324 20.9906L34.8368 19.0097C34.5312 18.3535 34.164 17.7235 33.7487 17.1387L40.3365 12.5156L40.3501 12.5346C41.044 13.5107 41.6499 14.5527 42.1605 15.6479L34.8375 19.0112C35.114 19.6078 35.3461 20.2369 35.522 20.8813ZM16.7365 24.0199C16.7365 23.8195 16.7483 23.601 16.7646 23.4059L16.4082 23.3761L12.1324 23.0222L12.0372 23.0141V23.015V23.0159C12.01 23.3454 11.9955 23.6777 11.9955 24.0145C11.9955 24.3486 12.01 24.6782 12.0372 25.005V25.0068L16.7646 24.6086C16.7483 24.4127 16.7365 24.2195 16.7365 24.0199ZM27.0268 12.4877L25.8159 17.0493C25.4358 16.95 25.0277 16.8777 24.6268 16.8416L25.0585 12.1445C25.7315 12.205 26.3882 12.3206 27.0249 12.4877H27.0268ZM29.0966 29.0791L32.4671 32.4082C32.9351 31.9387 33.3687 31.424 33.7533 30.8822C33.7533 30.8822 33.7533 30.8813 33.7542 30.8813L29.8739 28.1581C29.6444 28.4822 29.3769 28.7983 29.0966 29.0791ZM29.0703 34.7983L27.0458 30.5202C27.4077 30.3513 27.7669 30.1436 28.0916 29.9188L30.8027 33.8005C30.2576 34.177 29.6753 34.5138 29.0703 34.7983ZM30.8027 33.8005C31.3977 33.3879 31.9574 32.9184 32.4671 32.4082L38.1986 38.0768L38.1932 38.0822C37.3388 38.9382 36.4072 39.7165 35.4104 40.4073L30.8027 33.8005ZM27.0276 35.5393C27.7348 35.3534 28.4202 35.1033 29.0703 34.7983L32.5088 42.0777C31.4195 42.5888 30.2766 43.005 29.0902 43.3156C29.0902 43.316 29.0901 43.3162 29.0899 43.3163L29.0892 43.3165L29.0884 43.3165L27.0268 35.5398C26.3903 35.7067 25.7294 35.8231 25.0558 35.8836L24.6231 31.1748C25.024 31.1387 25.4331 31.0664 25.8131 30.9671L27.0276 35.5393ZM30.5315 27.0276L34.8417 29.0086C34.5361 29.6651 34.1696 30.2962 33.7551 30.8813L33.7542 30.8822L40.3528 35.5224C41.0485 34.5418 41.6562 33.4971 42.1678 32.3974L42.1705 32.3911L42.1732 32.3847L34.8417 29.0086C35.1184 28.4118 35.3497 27.7816 35.5256 27.1369V27.136L30.9442 25.898C30.8399 26.2827 30.6975 26.6709 30.5315 27.0276ZM31.1719 24.6104C31.1882 24.4145 31.2036 24.1978 31.2036 23.9974C31.2036 23.7978 31.1882 23.6037 31.1719 23.4086L35.8993 23.0123C35.8376 22.2845 35.7097 21.5676 35.5229 20.8822L43.3088 18.7802C43.3116 18.7874 43.3134 18.7946 43.3152 18.8019C43.6272 19.9459 43.8385 21.1305 43.941 22.3468L35.8993 23.0132C35.9265 23.34 35.942 23.6795 35.942 24.0136C35.942 24.3477 35.9274 24.6773 35.9002 25.0041L31.1719 24.6104ZM35.9002 25.0041L43.9447 25.6804C43.9438 25.6867 43.9429 25.6931 43.9429 25.6994C43.8413 26.9174 43.629 28.1039 43.3179 29.2497L35.5256 27.136V27.1351C35.7125 26.4497 35.8395 25.7328 35.9002 25.0041ZM22.1206 30.9662L20.9088 35.5387C21.5456 35.7057 22.2059 35.8222 22.8798 35.8827L23.3098 31.1739C22.9088 31.1378 22.5007 31.0664 22.1206 30.9662ZM14.1832 30.8831L18.0608 28.1554C18.2902 28.4795 18.5578 28.7956 18.8372 29.0764L15.4694 32.4082C14.9995 31.9369 14.5696 31.4276 14.1841 30.884C14.1837 30.884 14.1835 30.8839 14.1834 30.8837L14.1832 30.8831ZM13.0957 29.0095L17.4041 27.0249C17.2381 26.6682 17.0957 26.2809 16.9914 25.8944L12.4118 27.1378V27.1385C12.4117 27.1369 12.4109 27.1368 12.4109 27.136C12.224 26.4488 12.0971 25.7373 12.0363 25.0068L11.8676 25.0213L4.01451 25.6795C4.01451 25.6813 4.01474 25.6834 4.01496 25.6854C4.01519 25.6874 4.01542 25.6895 4.01542 25.6913C4.1161 26.9102 4.32744 28.0976 4.63945 29.2443L12.4118 27.1387C12.5877 27.7852 12.8172 28.41 13.0948 29.0086C13.0948 29.0086 13.0957 29.0086 13.0957 29.0095ZM19.8422 29.917L17.1338 33.8005C16.537 33.387 15.98 32.9211 15.4703 32.4091L9.75057 38.0651C9.75419 38.0687 9.75782 38.0723 9.76054 38.0759C10.6113 38.9292 11.5401 39.7066 12.5333 40.3965L17.1338 33.8005H17.1347C17.6807 34.1788 18.2603 34.5138 18.8662 34.7983L15.4313 42.0678L15.4422 42.0732C16.5279 42.5834 17.6671 42.9987 18.849 43.3102L20.9097 35.5396C20.2005 35.3536 19.5175 35.1044 18.8662 34.7983L20.888 30.5193C20.5261 30.3495 20.1669 30.1418 19.8422 29.917ZM30.8018 14.2258L28.0943 18.0985C27.7696 17.8737 27.4104 17.666 27.0494 17.4962L29.0663 13.227C28.417 12.9228 27.7359 12.6736 27.0286 12.4886L29.0821 4.74138C29.0851 4.74237 29.0883 4.74309 29.0917 4.74384C29.0945 4.74445 29.0974 4.74508 29.1002 4.74589C30.2785 5.0556 31.415 5.46914 32.498 5.97659L29.067 13.2264C29.6719 13.5108 30.2541 13.8457 30.7982 14.2231C30.7991 14.224 30.8009 14.2249 30.8018 14.2258ZM14.1859 17.1396C13.7696 17.7265 13.4041 18.354 13.0975 19.0132L5.7941 15.6569C6.30567 14.5563 6.91519 13.5098 7.6127 12.5283C7.6127 12.5278 7.61292 12.5276 7.61315 12.5274C7.61338 12.5272 7.6136 12.5269 7.6136 12.5265L14.1859 17.1396ZM12.0372 23.0141V23.0123C12.098 22.2818 12.2249 21.5703 12.4127 20.8831L4.64761 18.7847C4.6467 18.7874 4.6458 18.7901 4.6458 18.7919C4.33287 19.9396 4.12063 21.1278 4.01813 22.3477L11.8685 23.0005L12.0372 23.0141ZM14.1823 30.8822C14.1823 30.8831 14.1823 30.8831 14.1832 30.884L7.6 35.5125C6.90612 34.5328 6.29841 33.4881 5.78866 32.3901C5.78594 32.3856 5.78412 32.3811 5.78231 32.3766L13.0957 29.0104C13.4014 29.6687 13.766 30.2953 14.1823 30.8822ZM25.0549 35.8836C24.6975 35.9152 24.3338 35.9332 23.9682 35.9332C23.6018 35.9332 23.239 35.9161 22.8807 35.8836L22.1487 43.8881C22.1501 43.8881 22.1515 43.8883 22.1528 43.8886C22.1542 43.8888 22.1555 43.889 22.1569 43.889C22.7574 43.9432 23.3651 43.9721 23.98 43.9721C24.5896 43.9721 25.1927 43.9432 25.7887 43.8899L25.0549 35.8836Z" fill="#141516"/>
</g>
<defs>
<clipPath id="clip0_599_5492">
<rect width="40" height="40" fill="white" transform="translate(4 4)"/>
</clipPath>
</defs>
</svg>
